<mxfile host="app.diagrams.net" modified="2023-08-22T06:40:52.231Z" agent="Mozilla/5.0 (X11; Linux x86_64) AppleWebKit/537.36 (KHTML, like Gecko) Chrome/114.0.0.0 Safari/537.36" version="21.6.8" etag="S_j8Vo90SN3U9N0sM7b2" type="github">
  <diagram name="Page-1" id="XKHpnNvKb0xQiBqI5aUA">
    <mxGraphModel>
      <root>
        <mxCell id="0" />
        <mxCell id="1" parent="0" />
      </root>
    </mxGraphModel>
  </diagram>
</mxfile>
